<?xml version="1.0" standalone="no"?>
<!DOCTYPE svg PUBLIC "-//W3C//DTD SVG 20010904//EN"
 "http://www.w3.org/TR/2001/REC-SVG-20010904/DTD/svg10.dtd">
<svg version="1.0" xmlns="http://www.w3.org/2000/svg"
 width="81.000000pt" height="86.000000pt" viewBox="0 0 81.000000 86.000000"
 preserveAspectRatio="xMidYMid meet">

<g transform="translate(0.000000,86.000000) scale(0.100000,-0.100000)"
fill="#000000" stroke="none">
<path d="M142 719 c-56 -36 -62 -60 -62 -234 l0 -156 23 3 c21 3 22 7 27 156
5 153 5 154 33 178 26 22 36 24 146 24 111 0 120 -1 145 -25 18 -17 26 -34 26
-58 0 -18 6 -42 14 -52 12 -17 16 -18 31 -5 22 19 14 89 -16 131 -36 51 -65
59 -206 59 -113 0 -132 -3 -161 -21z"/>
<path d="M620 525 c-9 -11 -7 -19 14 -39 26 -26 56 -26 56 0 0 15 -35 54 -49
54 -5 0 -14 -7 -21 -15z"/>
<path d="M314 425 c-12 -31 7 -35 184 -35 l176 0 -31 -32 c-32 -34 -34 -58 -4
-58 22 0 121 100 121 123 0 16 -19 17 -220 17 -184 0 -222 -2 -226 -15z"/>
<path d="M486 275 c-3 -9 -6 -31 -6 -49 0 -22 -8 -40 -26 -57 -23 -22 -35 -24
-137 -27 -98 -2 -116 0 -144 17 -19 12 -35 32 -39 48 -10 49 -14 55 -31 51
-28 -6 -23 -81 8 -114 39 -43 78 -54 196 -54 135 0 181 18 213 85 27 56 24
109 -6 113 -13 2 -24 -4 -28 -13z"/>
</g>
</svg>
